<svg width="33" height="25" viewBox="0 0 33 25" fill="none" xmlns="http://www.w3.org/2000/svg">
<path d="M28.1673 3.75065C28.1673 3.75065 24.8241 1.1344 20.8757 0.833984L20.5198 1.54565C24.0898 2.41919 25.7275 3.67117 27.4382 5.20898C24.4887 3.70326 21.5764 2.29232 16.5007 2.29232C11.4249 2.29232 8.51263 3.70326 5.56315 5.20898C7.27378 3.67117 9.22211 2.28138 12.4815 1.54565L12.1257 0.833984C7.98325 1.22555 4.83398 3.75065 4.83398 3.75065C4.83398 3.75065 1.09992 9.16471 0.458984 19.7923C4.22294 24.133 9.93815 24.1673 9.93815 24.1673L11.1333 22.5741C9.10471 21.869 6.81367 20.6097 4.83398 18.334C7.19503 20.1204 10.7585 21.9798 16.5007 21.9798C22.2428 21.9798 25.8063 20.1204 28.1673 18.334C26.1876 20.6097 23.8966 21.869 21.868 22.5741L23.0632 24.1673C23.0632 24.1673 28.7784 24.133 32.5423 19.7923C31.9014 9.16471 28.1673 3.75065 28.1673 3.75065ZM11.7611 16.8757C10.3516 16.8757 9.20898 15.5697 9.20898 13.959C9.20898 12.3483 10.3516 11.0423 11.7611 11.0423C13.1705 11.0423 14.3132 12.3483 14.3132 13.959C14.3132 15.5697 13.1705 16.8757 11.7611 16.8757ZM21.2402 16.8757C19.8308 16.8757 18.6882 15.5697 18.6882 13.959C18.6882 12.3483 19.8308 11.0423 21.2402 11.0423C22.6497 11.0423 23.7923 12.3483 23.7923 13.959C23.7923 15.5697 22.6497 16.8757 21.2402 16.8757Z" fill="#8C9EFF"/>
</svg>
