<svg width="27" height="22" viewBox="0 0 27 22" fill="none" xmlns="http://www.w3.org/2000/svg">
<path d="M26.6252 3.06281C25.6605 3.4901 24.6229 3.77521 23.5285 3.9101C24.6412 3.24948 25.4972 2.19583 25.899 0.951146C24.8577 1.56146 23.7042 2.0099 22.477 2.24615C21.497 1.20708 20.0992 0.5625 18.5504 0.5625C15.5754 0.5625 13.1641 2.95271 13.1641 5.9C13.1641 6.31708 13.2129 6.72323 13.3048 7.11771C8.82919 6.89312 4.85961 4.76542 2.20398 1.53667C1.73732 2.32563 1.47482 3.24948 1.47482 4.22438C1.47482 6.07719 2.42346 7.70833 3.87013 8.66937C2.98711 8.6424 2.15586 8.39667 1.42815 8.00292C1.42815 8.01896 1.42815 8.04302 1.42815 8.06563C1.42815 10.6549 3.28534 12.811 5.747 13.3018C5.29711 13.425 4.82169 13.4935 4.33169 13.4935C3.98388 13.4935 3.64482 13.4542 3.31669 13.3951C4.00211 15.5111 5.99055 17.0577 8.34648 17.1036C6.50315 18.5328 4.18148 19.3889 1.65711 19.3889C1.22107 19.3889 0.794505 19.3641 0.373047 19.313C2.75815 20.8231 5.59023 21.7083 8.63013 21.7083C18.5359 21.7083 23.955 13.5737 23.955 6.51687C23.955 6.28573 23.9477 6.05531 23.9368 5.82781C24.9941 5.08115 25.9055 4.13906 26.6252 3.06281Z" fill="#03A9F4"/>
</svg>
