<svg width="160" height="150" viewBox="0 0 160 150" fill="none" xmlns="http://www.w3.org/2000/svg">
<rect x="0.5" y="0.5" width="159" height="149" rx="19.5" fill="#323754" stroke="#6BC5E0"/>
<path d="M41.3428 113L37.7466 103.522H37.688C37.7075 103.723 37.7246 103.967 37.7393 104.255C37.7539 104.543 37.7661 104.858 37.7759 105.2C37.7856 105.537 37.7905 105.881 37.7905 106.232V113H36.6333V102.292H38.479L41.8701 111.198H41.9214L45.3638 102.292H47.1948V113H45.9644V106.145C45.9644 105.827 45.9692 105.51 45.979 105.192C45.9888 104.87 46.001 104.567 46.0156 104.284C46.0303 103.996 46.0449 103.747 46.0596 103.537H46.001L42.3608 113H41.3428ZM51.1572 104.973V113H49.9414V104.973H51.1572ZM50.564 101.97C50.7642 101.97 50.9351 102.036 51.0767 102.167C51.2231 102.294 51.2964 102.495 51.2964 102.768C51.2964 103.037 51.2231 103.237 51.0767 103.369C50.9351 103.5 50.7642 103.566 50.564 103.566C50.354 103.566 50.1782 103.5 50.0366 103.369C49.8999 103.237 49.8315 103.037 49.8315 102.768C49.8315 102.495 49.8999 102.294 50.0366 102.167C50.1782 102.036 50.354 101.97 50.564 101.97ZM52.7686 116.604C52.5195 116.604 52.3022 116.584 52.1167 116.545C51.9312 116.511 51.77 116.469 51.6333 116.42V115.432C51.7847 115.48 51.9385 115.517 52.0947 115.542C52.251 115.571 52.4268 115.585 52.6221 115.585C52.9541 115.585 53.2227 115.493 53.4277 115.307C53.6328 115.122 53.7354 114.785 53.7354 114.296V104.973H54.9512V114.267C54.9512 114.755 54.873 115.173 54.7168 115.52C54.5605 115.871 54.3213 116.14 53.999 116.325C53.6768 116.511 53.2666 116.604 52.7686 116.604ZM53.6255 102.768C53.6255 102.495 53.6938 102.294 53.8306 102.167C53.9722 102.036 54.1479 101.97 54.3579 101.97C54.5581 101.97 54.729 102.036 54.8706 102.167C55.0171 102.294 55.0903 102.495 55.0903 102.768C55.0903 103.037 55.0171 103.237 54.8706 103.369C54.729 103.5 54.5581 103.566 54.3579 103.566C54.1479 103.566 53.9722 103.5 53.8306 103.369C53.6938 103.237 53.6255 103.037 53.6255 102.768ZM61.3306 104.826C62.2827 104.826 63.0029 105.061 63.4912 105.529C63.9795 105.993 64.2236 106.74 64.2236 107.771V113H63.0225V107.851C63.0225 107.182 62.8687 106.682 62.561 106.35C62.2583 106.018 61.792 105.852 61.1621 105.852C60.2734 105.852 59.6484 106.103 59.2871 106.606C58.9258 107.109 58.7451 107.839 58.7451 108.796V113H57.5293V104.973H58.5107L58.6938 106.13H58.7598C58.9307 105.847 59.1479 105.61 59.4116 105.419C59.6753 105.224 59.9707 105.078 60.2979 104.98C60.625 104.877 60.9692 104.826 61.3306 104.826ZM73.6279 104.841C74.585 104.841 75.2954 105.056 75.7593 105.485C76.2231 105.915 76.4551 106.601 76.4551 107.543V113H75.5688L75.3345 111.813H75.2759C75.0513 112.106 74.8169 112.353 74.5728 112.553C74.3286 112.749 74.0454 112.897 73.7231 113C73.4058 113.098 73.0151 113.146 72.5513 113.146C72.063 113.146 71.6284 113.061 71.2476 112.89C70.8716 112.719 70.5737 112.46 70.354 112.114C70.1392 111.767 70.0317 111.328 70.0317 110.795C70.0317 109.995 70.3491 109.379 70.9839 108.95C71.6187 108.52 72.5854 108.286 73.8843 108.247L75.2686 108.188V107.697C75.2686 107.004 75.1196 106.518 74.8218 106.24C74.5239 105.961 74.104 105.822 73.562 105.822C73.1421 105.822 72.7417 105.883 72.3608 106.005C71.98 106.127 71.6187 106.271 71.2769 106.438L70.9033 105.515C71.2646 105.329 71.6797 105.17 72.1484 105.039C72.6172 104.907 73.1104 104.841 73.6279 104.841ZM75.2539 109.045L74.0308 109.096C73.0298 109.135 72.3242 109.299 71.9141 109.587C71.5039 109.875 71.2988 110.283 71.2988 110.81C71.2988 111.269 71.438 111.608 71.7163 111.828C71.9946 112.048 72.3633 112.158 72.8223 112.158C73.5352 112.158 74.1187 111.96 74.5728 111.564C75.0269 111.169 75.2539 110.576 75.2539 109.785V109.045ZM82.1753 113.146C81.4526 113.146 80.8154 112.998 80.2637 112.7C79.7119 112.402 79.2822 111.948 78.9746 111.337C78.667 110.727 78.5132 109.958 78.5132 109.03C78.5132 108.059 78.6743 107.265 78.9966 106.65C79.3237 106.03 79.7729 105.571 80.3442 105.273C80.9155 104.975 81.5649 104.826 82.2925 104.826C82.6929 104.826 83.0786 104.868 83.4497 104.951C83.8257 105.029 84.1333 105.129 84.3726 105.251L84.0063 106.269C83.7622 106.171 83.479 106.083 83.1567 106.005C82.8394 105.927 82.5415 105.888 82.2632 105.888C81.7065 105.888 81.2427 106.008 80.8716 106.247C80.5054 106.486 80.2295 106.838 80.0439 107.302C79.8633 107.766 79.7729 108.337 79.7729 109.016C79.7729 109.665 79.8608 110.219 80.0366 110.678C80.2173 111.137 80.4834 111.489 80.835 111.733C81.1914 111.972 81.6357 112.092 82.168 112.092C82.5928 112.092 82.9761 112.048 83.3179 111.96C83.6597 111.867 83.9697 111.76 84.248 111.638V112.722C83.9795 112.858 83.6792 112.963 83.3472 113.037C83.02 113.11 82.6294 113.146 82.1753 113.146ZM89.3677 113.146C88.645 113.146 88.0078 112.998 87.4561 112.7C86.9043 112.402 86.4746 111.948 86.167 111.337C85.8594 110.727 85.7056 109.958 85.7056 109.03C85.7056 108.059 85.8667 107.265 86.189 106.65C86.5161 106.03 86.9653 105.571 87.5366 105.273C88.1079 104.975 88.7573 104.826 89.4849 104.826C89.8853 104.826 90.271 104.868 90.6421 104.951C91.0181 105.029 91.3257 105.129 91.5649 105.251L91.1987 106.269C90.9546 106.171 90.6714 106.083 90.3491 106.005C90.0317 105.927 89.7339 105.888 89.4556 105.888C88.8989 105.888 88.4351 106.008 88.064 106.247C87.6978 106.486 87.4219 106.838 87.2363 107.302C87.0557 107.766 86.9653 108.337 86.9653 109.016C86.9653 109.665 87.0532 110.219 87.229 110.678C87.4097 111.137 87.6758 111.489 88.0273 111.733C88.3838 111.972 88.8281 112.092 89.3604 112.092C89.7852 112.092 90.1685 112.048 90.5103 111.96C90.8521 111.867 91.1621 111.76 91.4404 111.638V112.722C91.1719 112.858 90.8716 112.963 90.5396 113.037C90.2124 113.11 89.8218 113.146 89.3677 113.146ZM100.266 108.972C100.266 109.631 100.181 110.219 100.01 110.737C99.8389 111.254 99.5923 111.691 99.27 112.048C98.9478 112.404 98.5571 112.678 98.0981 112.868C97.644 113.054 97.1289 113.146 96.5527 113.146C96.0156 113.146 95.5225 113.054 95.0732 112.868C94.6289 112.678 94.2432 112.404 93.916 112.048C93.5938 111.691 93.3423 111.254 93.1616 110.737C92.9858 110.219 92.8979 109.631 92.8979 108.972C92.8979 108.093 93.0469 107.346 93.3447 106.73C93.6426 106.11 94.0674 105.639 94.6191 105.317C95.1758 104.99 95.8374 104.826 96.604 104.826C97.3364 104.826 97.9761 104.99 98.5229 105.317C99.0747 105.644 99.502 106.118 99.8047 106.738C100.112 107.353 100.266 108.098 100.266 108.972ZM94.1577 108.972C94.1577 109.616 94.2432 110.175 94.4141 110.649C94.585 111.123 94.8486 111.489 95.2051 111.748C95.5615 112.006 96.0205 112.136 96.582 112.136C97.1387 112.136 97.5952 112.006 97.9517 111.748C98.313 111.489 98.5791 111.123 98.75 110.649C98.9209 110.175 99.0063 109.616 99.0063 108.972C99.0063 108.332 98.9209 107.78 98.75 107.316C98.5791 106.848 98.3154 106.486 97.959 106.232C97.6025 105.979 97.1411 105.852 96.5747 105.852C95.7397 105.852 95.127 106.127 94.7363 106.679C94.3506 107.231 94.1577 107.995 94.1577 108.972ZM108.997 104.973V113H108L107.825 111.872H107.759C107.593 112.15 107.378 112.385 107.114 112.575C106.851 112.766 106.553 112.907 106.221 113C105.894 113.098 105.544 113.146 105.173 113.146C104.539 113.146 104.006 113.044 103.577 112.839C103.147 112.634 102.822 112.316 102.603 111.887C102.388 111.457 102.28 110.905 102.28 110.231V104.973H103.511V110.144C103.511 110.812 103.662 111.313 103.965 111.645C104.268 111.972 104.729 112.136 105.349 112.136C105.945 112.136 106.418 112.023 106.77 111.799C107.126 111.574 107.383 111.245 107.539 110.81C107.695 110.371 107.773 109.833 107.773 109.199V104.973H108.997ZM115.369 104.826C116.321 104.826 117.041 105.061 117.529 105.529C118.018 105.993 118.262 106.74 118.262 107.771V113H117.061V107.851C117.061 107.182 116.907 106.682 116.599 106.35C116.296 106.018 115.83 105.852 115.2 105.852C114.312 105.852 113.687 106.103 113.325 106.606C112.964 107.109 112.783 107.839 112.783 108.796V113H111.567V104.973H112.549L112.732 106.13H112.798C112.969 105.847 113.186 105.61 113.45 105.419C113.713 105.224 114.009 105.078 114.336 104.98C114.663 104.877 115.007 104.826 115.369 104.826ZM123.359 112.15C123.56 112.15 123.765 112.133 123.975 112.099C124.185 112.065 124.355 112.023 124.487 111.975V112.919C124.346 112.983 124.148 113.037 123.894 113.081C123.645 113.125 123.401 113.146 123.162 113.146C122.737 113.146 122.351 113.073 122.004 112.927C121.658 112.775 121.379 112.521 121.169 112.165C120.964 111.809 120.862 111.315 120.862 110.686V105.925H119.719V105.332L120.869 104.855L121.353 103.112H122.085V104.973H124.436V105.925H122.085V110.649C122.085 111.152 122.2 111.528 122.429 111.777C122.664 112.026 122.974 112.15 123.359 112.15Z" fill="white"/>
<path d="M77 45C65.9543 45 57 53.9543 57 65C57 76.0456 65.9543 85 77 85C88.0456 85 97 76.0456 97 65C97 53.9543 88.0456 45 77 45Z" stroke="#D6FE00" stroke-width="4" stroke-linecap="round" stroke-linejoin="round"/>
<path d="M61.542 77.6914C61.542 77.6914 66 72 77 72C88 72 92.4582 77.6914 92.4582 77.6914" stroke="#D6FE00" stroke-width="4" stroke-linecap="round" stroke-linejoin="round"/>
<path d="M77 65C80.3138 65 83 62.3138 83 59C83 55.6863 80.3138 53 77 53C73.6862 53 71 55.6863 71 59C71 62.3138 73.6862 65 77 65Z" stroke="#D6FE00" stroke-width="4" stroke-linecap="round" stroke-linejoin="round"/>
</svg>
