<svg width="160" height="150" viewBox="0 0 160 150" fill="none" xmlns="http://www.w3.org/2000/svg">
<rect x="0.5" y="0.5" width="159" height="149" rx="19.5" fill="#323754" stroke="#6BC5E0"/>
<path d="M53.2886 116L51.9702 112.602H47.6782L46.3672 116H45.1074L49.2969 105.248H50.4175L54.5776 116H53.2886ZM51.5967 111.496L50.3442 108.119C50.3149 108.031 50.2661 107.887 50.1978 107.687C50.1343 107.487 50.0684 107.279 50 107.064C49.9316 106.85 49.8755 106.676 49.8315 106.544C49.7827 106.745 49.729 106.945 49.6704 107.145C49.6167 107.34 49.563 107.523 49.5093 107.694C49.4556 107.86 49.4092 108.002 49.3701 108.119L48.0957 111.496H51.5967ZM57.1045 116H55.8813V104.604H57.1045V116ZM61.9165 119.604C60.8618 119.604 60.0488 119.406 59.4775 119.01C58.9062 118.62 58.6206 118.07 58.6206 117.362C58.6206 116.859 58.7793 116.43 59.0967 116.073C59.4189 115.717 59.8633 115.48 60.4297 115.363C60.2197 115.265 60.0391 115.119 59.8877 114.923C59.7412 114.728 59.668 114.503 59.668 114.25C59.668 113.957 59.7485 113.7 59.9097 113.48C60.0757 113.256 60.3271 113.041 60.6641 112.836C60.2441 112.665 59.9023 112.377 59.6387 111.972C59.3799 111.562 59.2505 111.085 59.2505 110.543C59.2505 109.967 59.3701 109.477 59.6094 109.071C59.8486 108.661 60.1953 108.349 60.6494 108.134C61.1035 107.919 61.6528 107.812 62.2974 107.812C62.439 107.812 62.5806 107.819 62.7222 107.833C62.8687 107.843 63.0078 107.86 63.1396 107.885C63.2715 107.904 63.3862 107.929 63.4839 107.958H66.2378V108.742L64.7583 108.925C64.9048 109.115 65.0269 109.345 65.1245 109.613C65.2222 109.882 65.271 110.18 65.271 110.507C65.271 111.308 65 111.945 64.458 112.418C63.916 112.887 63.1714 113.122 62.2241 113.122C61.9995 113.122 61.77 113.102 61.5356 113.063C61.2964 113.195 61.1133 113.341 60.9863 113.502C60.8643 113.664 60.8032 113.849 60.8032 114.059C60.8032 114.215 60.8496 114.34 60.9424 114.433C61.04 114.525 61.1792 114.594 61.3599 114.638C61.5405 114.677 61.7578 114.696 62.0117 114.696H63.4253C64.2993 114.696 64.9683 114.879 65.4321 115.246C65.9009 115.612 66.1353 116.146 66.1353 116.85C66.1353 117.738 65.7739 118.419 65.0513 118.893C64.3286 119.367 63.2837 119.604 61.9165 119.604ZM61.9531 118.651C62.6172 118.651 63.1665 118.583 63.6011 118.446C64.0405 118.314 64.3677 118.122 64.5825 117.868C64.8022 117.619 64.9121 117.321 64.9121 116.974C64.9121 116.652 64.8389 116.408 64.6924 116.242C64.5459 116.081 64.3311 115.973 64.0479 115.919C63.7646 115.861 63.418 115.832 63.0078 115.832H61.6162C61.2549 115.832 60.9399 115.888 60.6714 116C60.4028 116.112 60.1953 116.278 60.0488 116.498C59.9072 116.718 59.8364 116.991 59.8364 117.318C59.8364 117.753 60.0195 118.083 60.3857 118.307C60.752 118.537 61.2744 118.651 61.9531 118.651ZM62.2681 112.235C62.8491 112.235 63.2861 112.089 63.5791 111.796C63.8721 111.503 64.0186 111.076 64.0186 110.514C64.0186 109.914 63.8696 109.464 63.5718 109.167C63.2739 108.864 62.8345 108.712 62.2534 108.712C61.6968 108.712 61.2671 108.869 60.9644 109.181C60.6665 109.489 60.5176 109.94 60.5176 110.536C60.5176 111.083 60.6689 111.503 60.9717 111.796C61.2744 112.089 61.7065 112.235 62.2681 112.235ZM70.9106 107.826C71.5942 107.826 72.1802 107.978 72.6685 108.28C73.1567 108.583 73.5303 109.008 73.7891 109.555C74.0479 110.097 74.1772 110.731 74.1772 111.459V112.213H68.6328C68.6475 113.156 68.8818 113.874 69.3359 114.367C69.79 114.86 70.4297 115.106 71.2549 115.106C71.7627 115.106 72.2119 115.06 72.6025 114.967C72.9932 114.875 73.3984 114.738 73.8184 114.557V115.626C73.4131 115.807 73.0103 115.939 72.6099 116.022C72.2144 116.105 71.7456 116.146 71.2036 116.146C70.4321 116.146 69.7583 115.99 69.1821 115.678C68.6108 115.36 68.1665 114.896 67.8491 114.286C67.5317 113.676 67.373 112.929 67.373 112.045C67.373 111.181 67.5171 110.434 67.8052 109.804C68.0981 109.169 68.5083 108.681 69.0356 108.339C69.5679 107.997 70.1929 107.826 70.9106 107.826ZM70.896 108.822C70.2466 108.822 69.729 109.035 69.3433 109.459C68.9575 109.884 68.728 110.478 68.6548 111.239H72.9028C72.8979 110.761 72.8223 110.341 72.6758 109.979C72.5342 109.613 72.3169 109.33 72.0239 109.13C71.731 108.925 71.355 108.822 70.896 108.822ZM84.9585 107.826C85.8423 107.826 86.5088 108.058 86.958 108.522C87.4072 108.981 87.6318 109.721 87.6318 110.741V116H86.4307V110.8C86.4307 110.15 86.2891 109.665 86.0059 109.342C85.7275 109.015 85.3125 108.852 84.7607 108.852C83.9844 108.852 83.4204 109.076 83.0688 109.525C82.7173 109.975 82.5415 110.636 82.5415 111.51V116H81.333V110.8C81.333 110.365 81.2695 110.004 81.1426 109.716C81.0205 109.428 80.835 109.213 80.5859 109.071C80.3418 108.925 80.0317 108.852 79.6558 108.852C79.1235 108.852 78.6963 108.961 78.374 109.181C78.0518 109.401 77.8174 109.728 77.6709 110.163C77.5293 110.592 77.4585 111.122 77.4585 111.752V116H76.2427V107.973H77.2241L77.4072 109.108H77.4731C77.6343 108.83 77.8369 108.595 78.0811 108.405C78.3252 108.214 78.5986 108.07 78.9014 107.973C79.2041 107.875 79.5264 107.826 79.8682 107.826C80.4785 107.826 80.9888 107.941 81.3989 108.17C81.814 108.395 82.1143 108.739 82.2998 109.203H82.3657C82.6294 108.739 82.9907 108.395 83.4497 108.17C83.9087 107.941 84.4116 107.826 84.9585 107.826ZM93.2202 107.826C93.9038 107.826 94.4897 107.978 94.978 108.28C95.4663 108.583 95.8398 109.008 96.0986 109.555C96.3574 110.097 96.4868 110.731 96.4868 111.459V112.213H90.9424C90.957 113.156 91.1914 113.874 91.6455 114.367C92.0996 114.86 92.7393 115.106 93.5645 115.106C94.0723 115.106 94.5215 115.06 94.9121 114.967C95.3027 114.875 95.708 114.738 96.1279 114.557V115.626C95.7227 115.807 95.3198 115.939 94.9194 116.022C94.5239 116.105 94.0552 116.146 93.5132 116.146C92.7417 116.146 92.0679 115.99 91.4917 115.678C90.9204 115.36 90.4761 114.896 90.1587 114.286C89.8413 113.676 89.6826 112.929 89.6826 112.045C89.6826 111.181 89.8267 110.434 90.1147 109.804C90.4077 109.169 90.8179 108.681 91.3452 108.339C91.8774 107.997 92.5024 107.826 93.2202 107.826ZM93.2056 108.822C92.5562 108.822 92.0386 109.035 91.6528 109.459C91.2671 109.884 91.0376 110.478 90.9644 111.239H95.2124C95.2075 110.761 95.1318 110.341 94.9854 109.979C94.8438 109.613 94.6265 109.33 94.3335 109.13C94.0405 108.925 93.6646 108.822 93.2056 108.822ZM101.643 107.826C102.327 107.826 102.913 107.978 103.401 108.28C103.889 108.583 104.263 109.008 104.521 109.555C104.78 110.097 104.91 110.731 104.91 111.459V112.213H99.3652C99.3799 113.156 99.6143 113.874 100.068 114.367C100.522 114.86 101.162 115.106 101.987 115.106C102.495 115.106 102.944 115.06 103.335 114.967C103.726 114.875 104.131 114.738 104.551 114.557V115.626C104.146 115.807 103.743 115.939 103.342 116.022C102.947 116.105 102.478 116.146 101.936 116.146C101.165 116.146 100.491 115.99 99.9146 115.678C99.3433 115.36 98.8989 114.896 98.5815 114.286C98.2642 113.676 98.1055 112.929 98.1055 112.045C98.1055 111.181 98.2495 110.434 98.5376 109.804C98.8306 109.169 99.2407 108.681 99.7681 108.339C100.3 107.997 100.925 107.826 101.643 107.826ZM101.628 108.822C100.979 108.822 100.461 109.035 100.076 109.459C99.6899 109.884 99.4604 110.478 99.3872 111.239H103.635C103.63 110.761 103.555 110.341 103.408 109.979C103.267 109.613 103.049 109.33 102.756 109.13C102.463 108.925 102.087 108.822 101.628 108.822ZM110.776 107.826C111.729 107.826 112.449 108.061 112.937 108.529C113.425 108.993 113.669 109.74 113.669 110.771V116H112.468V110.851C112.468 110.182 112.314 109.682 112.007 109.35C111.704 109.018 111.238 108.852 110.608 108.852C109.719 108.852 109.094 109.103 108.733 109.606C108.372 110.109 108.191 110.839 108.191 111.796V116H106.975V107.973H107.957L108.14 109.13H108.206C108.376 108.847 108.594 108.61 108.857 108.419C109.121 108.224 109.417 108.078 109.744 107.98C110.071 107.877 110.415 107.826 110.776 107.826Z" fill="white"/>
<path d="M73.7002 57.7C73.7002 50.35 85.2502 50.35 85.2502 57.7C85.2502 62.95 80.0002 61.8998 80.0002 68.1998" stroke="#D6FE00" stroke-width="4" stroke-linecap="round" stroke-linejoin="round"/>
<path d="M80 76.6205L80.0206 76.5977" stroke="#D6FE00" stroke-width="4" stroke-linecap="round" stroke-linejoin="round"/>
<path d="M80 85C91.5979 85 101 75.5979 101 64C101 52.402 91.5979 43 80 43C68.402 43 59 52.402 59 64C59 67.8249 60.0226 71.4111 61.8094 74.5L60.05 83.95L69.5 82.1906C72.5888 83.9773 76.1751 85 80 85Z" stroke="#D6FE00" stroke-width="4" stroke-linecap="round" stroke-linejoin="round"/>
</svg>
