<svg width="32" height="32" viewBox="0 0 32 32" fill="none" xmlns="http://www.w3.org/2000/svg">
<path d="M7.80033 22.7994C8.93366 21.9327 10.2003 21.2493 11.6003 20.7493C13.0003 20.2493 14.467 19.9993 16.0003 19.9993C17.5337 19.9993 19.0003 20.2493 20.4003 20.7493C21.8003 21.2493 23.067 21.9327 24.2003 22.7994C24.9781 21.8882 25.5837 20.8549 26.017 19.6994C26.4503 18.5438 26.667 17.3105 26.667 15.9993C26.667 13.0438 25.6281 10.5271 23.5503 8.44935C21.4725 6.37157 18.9559 5.33268 16.0003 5.33268C13.0448 5.33268 10.5281 6.37157 8.45033 8.44935C6.37255 10.5271 5.33366 13.0438 5.33366 15.9993C5.33366 17.3105 5.55033 18.5438 5.98366 19.6994C6.41699 20.8549 7.02255 21.8882 7.80033 22.7994ZM16.0003 17.3327C14.6892 17.3327 13.5837 16.8827 12.6837 15.9827C11.7837 15.0827 11.3337 13.9771 11.3337 12.666C11.3337 11.3549 11.7837 10.2493 12.6837 9.34935C13.5837 8.44935 14.6892 7.99935 16.0003 7.99935C17.3114 7.99935 18.417 8.44935 19.317 9.34935C20.217 10.2493 20.667 11.3549 20.667 12.666C20.667 13.9771 20.217 15.0827 19.317 15.9827C18.417 16.8827 17.3114 17.3327 16.0003 17.3327ZM16.0003 29.3327C14.1559 29.3327 12.4225 28.9827 10.8003 28.2827C9.1781 27.5827 7.76699 26.6327 6.56699 25.4327C5.36699 24.2327 4.41699 22.8216 3.71699 21.1994C3.01699 19.5771 2.66699 17.8438 2.66699 15.9993C2.66699 14.1549 3.01699 12.4216 3.71699 10.7993C4.41699 9.17713 5.36699 7.76602 6.56699 6.56602C7.76699 5.36602 9.1781 4.41602 10.8003 3.71602C12.4225 3.01602 14.1559 2.66602 16.0003 2.66602C17.8448 2.66602 19.5781 3.01602 21.2003 3.71602C22.8225 4.41602 24.2337 5.36602 25.4337 6.56602C26.6337 7.76602 27.5837 9.17713 28.2837 10.7993C28.9837 12.4216 29.3337 14.1549 29.3337 15.9993C29.3337 17.8438 28.9837 19.5771 28.2837 21.1994C27.5837 22.8216 26.6337 24.2327 25.4337 25.4327C24.2337 26.6327 22.8225 27.5827 21.2003 28.2827C19.5781 28.9827 17.8448 29.3327 16.0003 29.3327Z" fill="#D6FE00"/>
</svg>
