<svg width="160" height="150" viewBox="0 0 160 150" fill="none" xmlns="http://www.w3.org/2000/svg">
<rect x="0.5" y="0.5" width="159" height="149" rx="19.5" fill="#323754" stroke="#6BC5E0"/>
<path d="M47.312 115L45.9937 111.602H41.7017L40.3906 115H39.1309L43.3203 104.248H44.4409L48.6011 115H47.312ZM45.6201 110.496L44.3677 107.119C44.3384 107.031 44.2896 106.887 44.2212 106.687C44.1577 106.487 44.0918 106.279 44.0234 106.064C43.9551 105.85 43.8989 105.676 43.855 105.544C43.8062 105.745 43.7524 105.945 43.6938 106.145C43.6401 106.34 43.5864 106.523 43.5327 106.694C43.479 106.86 43.4326 107.002 43.3936 107.119L42.1191 110.496H45.6201ZM53.479 107.925H51.4795V115H50.2637V107.925H48.8428V107.339L50.2637 106.936V106.401C50.2637 105.728 50.3638 105.181 50.564 104.761C50.7642 104.336 51.0547 104.023 51.4355 103.823C51.8164 103.623 52.2803 103.523 52.8271 103.523C53.1348 103.523 53.4155 103.55 53.6694 103.604C53.9282 103.657 54.1553 103.718 54.3506 103.787L54.0356 104.746C53.8696 104.692 53.6816 104.644 53.4717 104.6C53.2666 104.551 53.0566 104.526 52.8418 104.526C52.3779 104.526 52.0337 104.678 51.8091 104.98C51.5894 105.278 51.4795 105.747 51.4795 106.387V106.973H53.479V107.925ZM56.1743 115H54.9512V103.604H56.1743V115ZM61.8286 106.826C62.5122 106.826 63.0981 106.978 63.5864 107.28C64.0747 107.583 64.4482 108.008 64.707 108.555C64.9658 109.097 65.0952 109.731 65.0952 110.459V111.213H59.5508C59.5654 112.156 59.7998 112.874 60.2539 113.367C60.708 113.86 61.3477 114.106 62.1729 114.106C62.6807 114.106 63.1299 114.06 63.5205 113.967C63.9111 113.875 64.3164 113.738 64.7363 113.557V114.626C64.3311 114.807 63.9282 114.939 63.5278 115.022C63.1323 115.105 62.6636 115.146 62.1216 115.146C61.3501 115.146 60.6763 114.99 60.1001 114.678C59.5288 114.36 59.0845 113.896 58.7671 113.286C58.4497 112.676 58.291 111.929 58.291 111.045C58.291 110.181 58.4351 109.434 58.7231 108.804C59.0161 108.169 59.4263 107.681 59.9536 107.339C60.4858 106.997 61.1108 106.826 61.8286 106.826ZM61.814 107.822C61.1646 107.822 60.647 108.035 60.2612 108.459C59.8755 108.884 59.646 109.478 59.5728 110.239H63.8208C63.8159 109.761 63.7402 109.341 63.5938 108.979C63.4521 108.613 63.2349 108.33 62.9419 108.13C62.6489 107.925 62.2729 107.822 61.814 107.822ZM68.9258 115L65.8789 106.973H67.1826L68.9478 111.829C69.0698 112.161 69.1943 112.527 69.3213 112.927C69.4482 113.328 69.5361 113.65 69.585 113.894H69.6362C69.6948 113.65 69.7925 113.328 69.9292 112.927C70.0659 112.522 70.1904 112.156 70.3027 111.829L72.0679 106.973H73.3716L70.3174 115H68.9258ZM77.7515 106.826C78.4351 106.826 79.021 106.978 79.5093 107.28C79.9976 107.583 80.3711 108.008 80.6299 108.555C80.8887 109.097 81.0181 109.731 81.0181 110.459V111.213H75.4736C75.4883 112.156 75.7227 112.874 76.1768 113.367C76.6309 113.86 77.2705 114.106 78.0957 114.106C78.6035 114.106 79.0527 114.06 79.4434 113.967C79.834 113.875 80.2393 113.738 80.6592 113.557V114.626C80.2539 114.807 79.8511 114.939 79.4507 115.022C79.0552 115.105 78.5864 115.146 78.0444 115.146C77.2729 115.146 76.5991 114.99 76.0229 114.678C75.4517 114.36 75.0073 113.896 74.6899 113.286C74.3726 112.676 74.2139 111.929 74.2139 111.045C74.2139 110.181 74.3579 109.434 74.646 108.804C74.939 108.169 75.3491 107.681 75.8765 107.339C76.4087 106.997 77.0337 106.826 77.7515 106.826ZM77.7368 107.822C77.0874 107.822 76.5698 108.035 76.1841 108.459C75.7983 108.884 75.5688 109.478 75.4956 110.239H79.7437C79.7388 109.761 79.6631 109.341 79.5166 108.979C79.375 108.613 79.1577 108.33 78.8647 108.13C78.5718 107.925 78.1958 107.822 77.7368 107.822ZM86.731 106.826C86.8921 106.826 87.0605 106.836 87.2363 106.855C87.4121 106.87 87.5684 106.892 87.7051 106.921L87.5513 108.049C87.4194 108.015 87.2729 107.988 87.1118 107.969C86.9507 107.949 86.7993 107.939 86.6577 107.939C86.3354 107.939 86.0303 108.005 85.7422 108.137C85.459 108.264 85.21 108.45 84.9951 108.694C84.7803 108.933 84.6118 109.224 84.4897 109.565C84.3677 109.902 84.3066 110.278 84.3066 110.693V115H83.0835V106.973H84.0942L84.2261 108.452H84.2773C84.4434 108.154 84.6436 107.883 84.8779 107.639C85.1123 107.39 85.3833 107.192 85.6909 107.046C86.0034 106.899 86.3501 106.826 86.731 106.826ZM92.9932 106.826C93.9941 106.826 94.7925 107.17 95.3882 107.859C95.9839 108.547 96.2817 109.583 96.2817 110.964C96.2817 111.877 96.145 112.644 95.8716 113.264C95.5981 113.884 95.2124 114.353 94.7144 114.67C94.2212 114.988 93.6377 115.146 92.9639 115.146C92.5391 115.146 92.1655 115.09 91.8433 114.978C91.521 114.866 91.2451 114.714 91.0156 114.524C90.7861 114.333 90.5957 114.126 90.4443 113.901H90.3564C90.3711 114.092 90.3882 114.321 90.4077 114.59C90.4321 114.858 90.4443 115.093 90.4443 115.293V118.589H89.2212V106.973H90.2246L90.3857 108.159H90.4443C90.6006 107.915 90.791 107.693 91.0156 107.493C91.2402 107.288 91.5137 107.126 91.8359 107.009C92.1631 106.887 92.5488 106.826 92.9932 106.826ZM92.7808 107.852C92.2241 107.852 91.7749 107.959 91.4331 108.174C91.0962 108.389 90.8496 108.711 90.6934 109.141C90.5371 109.565 90.4541 110.1 90.4443 110.745V110.979C90.4443 111.658 90.5176 112.231 90.6641 112.7C90.8154 113.169 91.062 113.525 91.4038 113.77C91.7505 114.014 92.2144 114.136 92.7954 114.136C93.2935 114.136 93.7085 114.001 94.0405 113.733C94.3726 113.464 94.6191 113.091 94.7803 112.612C94.9463 112.129 95.0293 111.575 95.0293 110.95C95.0293 110.002 94.8438 109.25 94.4727 108.694C94.1064 108.132 93.5425 107.852 92.7808 107.852ZM105.034 106.973V115H104.038L103.862 113.872H103.796C103.63 114.15 103.416 114.385 103.152 114.575C102.888 114.766 102.59 114.907 102.258 115C101.931 115.098 101.582 115.146 101.211 115.146C100.576 115.146 100.044 115.044 99.6143 114.839C99.1846 114.634 98.8599 114.316 98.6401 113.887C98.4253 113.457 98.3179 112.905 98.3179 112.231V106.973H99.5483V112.144C99.5483 112.812 99.6997 113.313 100.002 113.645C100.305 113.972 100.767 114.136 101.387 114.136C101.982 114.136 102.456 114.023 102.808 113.799C103.164 113.574 103.42 113.245 103.577 112.81C103.733 112.371 103.811 111.833 103.811 111.199V106.973H105.034ZM111.406 106.826C112.358 106.826 113.079 107.061 113.567 107.529C114.055 107.993 114.299 108.74 114.299 109.771V115H113.098V109.851C113.098 109.182 112.944 108.682 112.637 108.35C112.334 108.018 111.868 107.852 111.238 107.852C110.349 107.852 109.724 108.103 109.363 108.606C109.001 109.109 108.821 109.839 108.821 110.796V115H107.605V106.973H108.586L108.77 108.13H108.835C109.006 107.847 109.224 107.61 109.487 107.419C109.751 107.224 110.046 107.078 110.374 106.98C110.701 106.877 111.045 106.826 111.406 106.826ZM119.397 114.15C119.597 114.15 119.802 114.133 120.012 114.099C120.222 114.065 120.393 114.023 120.525 113.975V114.919C120.383 114.983 120.186 115.037 119.932 115.081C119.683 115.125 119.438 115.146 119.199 115.146C118.774 115.146 118.389 115.073 118.042 114.927C117.695 114.775 117.417 114.521 117.207 114.165C117.002 113.809 116.899 113.315 116.899 112.686V107.925H115.757V107.332L116.907 106.855L117.39 105.112H118.123V106.973H120.474V107.925H118.123V112.649C118.123 113.152 118.237 113.528 118.467 113.777C118.701 114.026 119.011 114.15 119.397 114.15Z" fill="white"/>
<path d="M95 56.5C95 66.165 77.5 82.75 77.5 82.75C77.5 82.75 60 66.165 60 56.5C60 46.835 67.835 39 77.5 39C87.165 39 95 46.835 95 56.5Z" stroke="#D6FE00" stroke-width="4"/>
<path d="M77.5 58.6875C78.7082 58.6875 79.6875 57.7082 79.6875 56.5C79.6875 55.2919 78.7082 54.3125 77.5 54.3125C76.2918 54.3125 75.3125 55.2919 75.3125 56.5C75.3125 57.7082 76.2918 58.6875 77.5 58.6875Z" stroke="#D6FE00" stroke-width="4" stroke-linecap="round" stroke-linejoin="round"/>
</svg>
