<svg width="160" height="150" viewBox="0 0 160 150" fill="none" xmlns="http://www.w3.org/2000/svg">
<rect x="0.5" y="0.5" width="159" height="149" rx="19.5" fill="#323754" stroke="#6BC5E0"/>
<path d="M38.772 104.292H41.8042C43.1421 104.292 44.1479 104.492 44.8218 104.893C45.4956 105.293 45.8325 105.974 45.8325 106.936C45.8325 107.351 45.752 107.725 45.5908 108.057C45.4346 108.384 45.2051 108.655 44.9023 108.87C44.5996 109.084 44.2261 109.233 43.7817 109.316V109.39C44.2505 109.463 44.6655 109.597 45.0269 109.792C45.3882 109.988 45.6714 110.261 45.8765 110.613C46.0815 110.964 46.1841 111.411 46.1841 111.953C46.1841 112.612 46.0303 113.169 45.7227 113.623C45.4199 114.077 44.9902 114.421 44.4336 114.656C43.877 114.885 43.2178 115 42.4561 115H38.772V104.292ZM40.0171 108.884H42.0679C43.0005 108.884 43.645 108.73 44.0015 108.423C44.3628 108.115 44.5435 107.666 44.5435 107.075C44.5435 106.465 44.3286 106.025 43.8989 105.757C43.4741 105.488 42.7954 105.354 41.8628 105.354H40.0171V108.884ZM40.0171 109.932V113.938H42.2437C43.1958 113.938 43.8696 113.752 44.2651 113.381C44.6606 113.005 44.8584 112.5 44.8584 111.865C44.8584 111.46 44.7681 111.113 44.5874 110.825C44.4116 110.537 44.1235 110.317 43.7231 110.166C43.3276 110.01 42.7979 109.932 42.1338 109.932H40.0171ZM51.377 106.826C52.0605 106.826 52.6465 106.978 53.1348 107.28C53.623 107.583 53.9966 108.008 54.2554 108.555C54.5142 109.097 54.6436 109.731 54.6436 110.459V111.213H49.0991C49.1138 112.156 49.3481 112.874 49.8022 113.367C50.2563 113.86 50.896 114.106 51.7212 114.106C52.229 114.106 52.6782 114.06 53.0688 113.967C53.4595 113.875 53.8647 113.738 54.2847 113.557V114.626C53.8794 114.807 53.4766 114.939 53.0762 115.022C52.6807 115.105 52.2119 115.146 51.6699 115.146C50.8984 115.146 50.2246 114.99 49.6484 114.678C49.0771 114.36 48.6328 113.896 48.3154 113.286C47.998 112.676 47.8394 111.929 47.8394 111.045C47.8394 110.181 47.9834 109.434 48.2715 108.804C48.5645 108.169 48.9746 107.681 49.502 107.339C50.0342 106.997 50.6592 106.826 51.377 106.826ZM51.3623 107.822C50.7129 107.822 50.1953 108.035 49.8096 108.459C49.4238 108.884 49.1943 109.478 49.1211 110.239H53.3691C53.3643 109.761 53.2886 109.341 53.1421 108.979C53.0005 108.613 52.7832 108.33 52.4902 108.13C52.1973 107.925 51.8213 107.822 51.3623 107.822ZM61.9019 112.803C61.9019 113.315 61.7725 113.748 61.5137 114.099C61.2598 114.446 60.8936 114.707 60.415 114.883C59.9414 115.059 59.375 115.146 58.7158 115.146C58.1543 115.146 57.6685 115.103 57.2583 115.015C56.8481 114.927 56.4893 114.802 56.1816 114.641V113.521C56.5088 113.682 56.8994 113.828 57.3535 113.96C57.8076 114.092 58.2715 114.158 58.7451 114.158C59.4385 114.158 59.9414 114.045 60.2539 113.821C60.5664 113.596 60.7227 113.291 60.7227 112.905C60.7227 112.686 60.6592 112.493 60.5322 112.327C60.4102 112.156 60.2026 111.992 59.9097 111.836C59.6167 111.675 59.2114 111.499 58.6938 111.309C58.1812 111.113 57.7368 110.92 57.3608 110.73C56.9897 110.535 56.7017 110.298 56.4966 110.02C56.2964 109.741 56.1963 109.38 56.1963 108.936C56.1963 108.257 56.4697 107.737 57.0166 107.375C57.5684 107.009 58.291 106.826 59.1846 106.826C59.668 106.826 60.1196 106.875 60.5396 106.973C60.9644 107.065 61.3599 107.192 61.7261 107.354L61.3159 108.328C60.9839 108.186 60.6299 108.066 60.2539 107.969C59.8779 107.871 59.4946 107.822 59.104 107.822C58.5425 107.822 58.1104 107.915 57.8076 108.101C57.5098 108.286 57.3608 108.54 57.3608 108.862C57.3608 109.111 57.4292 109.316 57.5659 109.478C57.7075 109.639 57.9321 109.79 58.2397 109.932C58.5474 110.073 58.9526 110.239 59.4556 110.43C59.9585 110.615 60.3931 110.808 60.7593 111.008C61.1255 111.204 61.4062 111.443 61.6016 111.726C61.8018 112.004 61.9019 112.363 61.9019 112.803ZM66.4502 114.15C66.6504 114.15 66.8555 114.133 67.0654 114.099C67.2754 114.065 67.4463 114.023 67.5781 113.975V114.919C67.4365 114.983 67.2388 115.037 66.9849 115.081C66.7358 115.125 66.4917 115.146 66.2524 115.146C65.8276 115.146 65.4419 115.073 65.0952 114.927C64.7485 114.775 64.4702 114.521 64.2603 114.165C64.0552 113.809 63.9526 113.315 63.9526 112.686V107.925H62.8101V107.332L63.96 106.855L64.4434 105.112H65.1758V106.973H67.5269V107.925H65.1758V112.649C65.1758 113.152 65.2905 113.528 65.52 113.777C65.7544 114.026 66.0645 114.15 66.4502 114.15ZM72.2949 106.826C72.9785 106.826 73.5645 106.978 74.0527 107.28C74.541 107.583 74.9146 108.008 75.1733 108.555C75.4321 109.097 75.5615 109.731 75.5615 110.459V111.213H70.0171C70.0317 112.156 70.2661 112.874 70.7202 113.367C71.1743 113.86 71.814 114.106 72.6392 114.106C73.147 114.106 73.5962 114.06 73.9868 113.967C74.3774 113.875 74.7827 113.738 75.2026 113.557V114.626C74.7974 114.807 74.3945 114.939 73.9941 115.022C73.5986 115.105 73.1299 115.146 72.5879 115.146C71.8164 115.146 71.1426 114.99 70.5664 114.678C69.9951 114.36 69.5508 113.896 69.2334 113.286C68.916 112.676 68.7573 111.929 68.7573 111.045C68.7573 110.181 68.9014 109.434 69.1895 108.804C69.4824 108.169 69.8926 107.681 70.4199 107.339C70.9521 106.997 71.5771 106.826 72.2949 106.826ZM72.2803 107.822C71.6309 107.822 71.1133 108.035 70.7275 108.459C70.3418 108.884 70.1123 109.478 70.0391 110.239H74.2871C74.2822 109.761 74.2065 109.341 74.0601 108.979C73.9185 108.613 73.7012 108.33 73.4082 108.13C73.1152 107.925 72.7393 107.822 72.2803 107.822ZM78.8501 115H77.627V103.604H78.8501V115ZM82.644 115H81.4209V103.604H82.644V115ZM86.4307 106.973V115H85.2148V106.973H86.4307ZM85.8374 103.97C86.0376 103.97 86.2085 104.036 86.3501 104.167C86.4966 104.294 86.5698 104.495 86.5698 104.768C86.5698 105.037 86.4966 105.237 86.3501 105.369C86.2085 105.5 86.0376 105.566 85.8374 105.566C85.6274 105.566 85.4517 105.5 85.3101 105.369C85.1733 105.237 85.105 105.037 85.105 104.768C85.105 104.495 85.1733 104.294 85.3101 104.167C85.4517 104.036 85.6274 103.97 85.8374 103.97ZM92.8101 106.826C93.7622 106.826 94.4824 107.061 94.9707 107.529C95.459 107.993 95.7031 108.74 95.7031 109.771V115H94.502V109.851C94.502 109.182 94.3481 108.682 94.0405 108.35C93.7378 108.018 93.2715 107.852 92.6416 107.852C91.7529 107.852 91.1279 108.103 90.7666 108.606C90.4053 109.109 90.2246 109.839 90.2246 110.796V115H89.0088V106.973H89.9902L90.1733 108.13H90.2393C90.4102 107.847 90.6274 107.61 90.8911 107.419C91.1548 107.224 91.4502 107.078 91.7773 106.98C92.1045 106.877 92.4487 106.826 92.8101 106.826ZM100.449 118.604C99.3945 118.604 98.5815 118.406 98.0103 118.01C97.439 117.62 97.1533 117.07 97.1533 116.362C97.1533 115.859 97.312 115.43 97.6294 115.073C97.9517 114.717 98.396 114.48 98.9624 114.363C98.7524 114.265 98.5718 114.119 98.4204 113.923C98.2739 113.728 98.2007 113.503 98.2007 113.25C98.2007 112.957 98.2812 112.7 98.4424 112.48C98.6084 112.256 98.8599 112.041 99.1968 111.836C98.7769 111.665 98.4351 111.377 98.1714 110.972C97.9126 110.562 97.7832 110.085 97.7832 109.543C97.7832 108.967 97.9028 108.477 98.1421 108.071C98.3813 107.661 98.728 107.349 99.1821 107.134C99.6362 106.919 100.186 106.812 100.83 106.812C100.972 106.812 101.113 106.819 101.255 106.833C101.401 106.843 101.541 106.86 101.672 106.885C101.804 106.904 101.919 106.929 102.017 106.958H104.771V107.742L103.291 107.925C103.438 108.115 103.56 108.345 103.657 108.613C103.755 108.882 103.804 109.18 103.804 109.507C103.804 110.308 103.533 110.945 102.991 111.418C102.449 111.887 101.704 112.122 100.757 112.122C100.532 112.122 100.303 112.102 100.068 112.063C99.8291 112.195 99.646 112.341 99.519 112.502C99.397 112.664 99.3359 112.849 99.3359 113.059C99.3359 113.215 99.3823 113.34 99.4751 113.433C99.5728 113.525 99.7119 113.594 99.8926 113.638C100.073 113.677 100.291 113.696 100.544 113.696H101.958C102.832 113.696 103.501 113.879 103.965 114.246C104.434 114.612 104.668 115.146 104.668 115.85C104.668 116.738 104.307 117.419 103.584 117.893C102.861 118.367 101.816 118.604 100.449 118.604ZM100.486 117.651C101.15 117.651 101.699 117.583 102.134 117.446C102.573 117.314 102.9 117.122 103.115 116.868C103.335 116.619 103.445 116.321 103.445 115.974C103.445 115.652 103.372 115.408 103.225 115.242C103.079 115.081 102.864 114.973 102.581 114.919C102.297 114.861 101.951 114.832 101.541 114.832H100.149C99.7876 114.832 99.4727 114.888 99.2041 115C98.9355 115.112 98.728 115.278 98.5815 115.498C98.4399 115.718 98.3691 115.991 98.3691 116.318C98.3691 116.753 98.5522 117.083 98.9185 117.307C99.2847 117.537 99.8071 117.651 100.486 117.651ZM100.801 111.235C101.382 111.235 101.819 111.089 102.112 110.796C102.405 110.503 102.551 110.076 102.551 109.514C102.551 108.914 102.402 108.464 102.104 108.167C101.807 107.864 101.367 107.712 100.786 107.712C100.229 107.712 99.7998 107.869 99.4971 108.181C99.1992 108.489 99.0503 108.94 99.0503 109.536C99.0503 110.083 99.2017 110.503 99.5044 110.796C99.8071 111.089 100.239 111.235 100.801 111.235ZM109.443 106.826C110.127 106.826 110.713 106.978 111.201 107.28C111.689 107.583 112.063 108.008 112.322 108.555C112.581 109.097 112.71 109.731 112.71 110.459V111.213H107.166C107.18 112.156 107.415 112.874 107.869 113.367C108.323 113.86 108.962 114.106 109.788 114.106C110.295 114.106 110.745 114.06 111.135 113.967C111.526 113.875 111.931 113.738 112.351 113.557V114.626C111.946 114.807 111.543 114.939 111.143 115.022C110.747 115.105 110.278 115.146 109.736 115.146C108.965 115.146 108.291 114.99 107.715 114.678C107.144 114.36 106.699 113.896 106.382 113.286C106.064 112.676 105.906 111.929 105.906 111.045C105.906 110.181 106.05 109.434 106.338 108.804C106.631 108.169 107.041 107.681 107.568 107.339C108.101 106.997 108.726 106.826 109.443 106.826ZM109.429 107.822C108.779 107.822 108.262 108.035 107.876 108.459C107.49 108.884 107.261 109.478 107.188 110.239H111.436C111.431 109.761 111.355 109.341 111.208 108.979C111.067 108.613 110.85 108.33 110.557 108.13C110.264 107.925 109.888 107.822 109.429 107.822ZM118.577 106.826C119.529 106.826 120.249 107.061 120.737 107.529C121.226 107.993 121.47 108.74 121.47 109.771V115H120.269V109.851C120.269 109.182 120.115 108.682 119.807 108.35C119.504 108.018 119.038 107.852 118.408 107.852C117.52 107.852 116.895 108.103 116.533 108.606C116.172 109.109 115.991 109.839 115.991 110.796V115H114.775V106.973H115.757L115.94 108.13H116.006C116.177 107.847 116.394 107.61 116.658 107.419C116.921 107.224 117.217 107.078 117.544 106.98C117.871 106.877 118.215 106.826 118.577 106.826Z" fill="white"/>
<mask id="path-3-inside-1_968_4192" fill="white">
<path d="M59 51.2232L82.7662 61.786L84.3749 58.1663L60.6087 47.6035L59 51.2232ZM85.5511 89.0237V59.9761H81.5901V89.0237H85.5511ZM84.3749 61.786L108.141 51.2232L106.532 47.6035L82.7662 58.1663L84.3749 61.786Z"/>
</mask>
<path d="M59 51.2232L55.3447 49.5986L53.7202 53.2538L57.3754 54.8784L59 51.2232ZM82.7662 61.786L81.1416 65.4413L84.797 67.0659L86.4215 63.4105L82.7662 61.786ZM84.3749 58.1663L88.0302 59.7908L89.6547 56.1356L85.9995 54.511L84.3749 58.1663ZM60.6087 47.6035L62.2333 43.9483L58.578 42.3237L56.9535 45.979L60.6087 47.6035ZM85.5511 89.0237V93.0237H89.5511V89.0237H85.5511ZM85.5511 59.9761H89.5511V55.9761H85.5511V59.9761ZM81.5901 59.9761V55.9761H77.5901V59.9761H81.5901ZM81.5901 89.0237H77.5901V93.0237H81.5901V89.0237ZM84.3749 61.786L80.7197 63.4105L82.3442 67.0659L85.9995 65.4413L84.3749 61.786ZM108.141 51.2232L109.766 54.8784L113.421 53.2539L111.796 49.5986L108.141 51.2232ZM106.532 47.6035L110.188 45.979L108.563 42.3237L104.908 43.9483L106.532 47.6035ZM82.7662 58.1663L81.1417 54.511L77.4865 56.1356L79.1109 59.7908L82.7662 58.1663ZM57.3754 54.8784L81.1416 65.4413L84.3908 58.1308L60.6246 47.5679L57.3754 54.8784ZM86.4215 63.4105L88.0302 59.7908L80.7197 56.5418L79.1109 60.1615L86.4215 63.4105ZM85.9995 54.511L62.2333 43.9483L58.9842 51.2588L82.7504 61.8215L85.9995 54.511ZM56.9535 45.979L55.3447 49.5986L62.6553 52.8477L64.264 49.228L56.9535 45.979ZM89.5511 89.0237V59.9761H81.5511V89.0237H89.5511ZM85.5511 55.9761H81.5901V63.9761H85.5511V55.9761ZM77.5901 59.9761V89.0237H85.5901V59.9761H77.5901ZM81.5901 93.0237H85.5511V85.0237H81.5901V93.0237ZM85.9995 65.4413L109.766 54.8784L106.517 47.5679L82.7504 58.1308L85.9995 65.4413ZM111.796 49.5986L110.188 45.979L102.877 49.228L104.486 52.8477L111.796 49.5986ZM104.908 43.9483L81.1417 54.511L84.3908 61.8215L108.157 51.2588L104.908 43.9483ZM79.1109 59.7908L80.7197 63.4105L88.0302 60.1615L86.4215 56.5418L79.1109 59.7908Z" fill="#D6FE00" mask="url(#path-3-inside-1_968_4192)"/>
<path d="M59.8047 77.4313V50.443C59.8047 49.8169 60.1734 49.2495 60.7456 48.9952L82.9274 39.1366C83.3372 38.9545 83.8046 38.9545 84.2144 39.1366L106.396 48.9952C106.968 49.2495 107.337 49.8169 107.337 50.443V77.4313C107.337 78.0574 106.968 78.6249 106.396 78.8792L84.2144 88.7377C83.8046 88.9197 83.3372 88.9197 82.9274 88.7377L60.7456 78.8792C60.1734 78.6249 59.8047 78.0574 59.8047 77.4313Z" stroke="#D6FE00" stroke-width="4" stroke-linecap="round" stroke-linejoin="round"/>
<path d="M71.6875 44.1328L94.5128 54.2774C95.0851 54.5317 95.4537 55.0991 95.4537 55.7252V65.2583" stroke="#D6FE00" stroke-width="4" stroke-linecap="round" stroke-linejoin="round"/>
</svg>
