<svg width="160" height="150" viewBox="0 0 160 150" fill="none" xmlns="http://www.w3.org/2000/svg">
<rect x="0.5" y="0.5" width="159" height="149" rx="19.5" fill="#323754" stroke="#6BC5E0"/>
<path d="M60.6641 104.292C61.543 104.292 62.2681 104.402 62.8394 104.622C63.4155 104.836 63.8452 105.166 64.1284 105.61C64.4116 106.055 64.5532 106.621 64.5532 107.31C64.5532 107.876 64.4507 108.35 64.2456 108.73C64.0405 109.106 63.772 109.412 63.4399 109.646C63.1079 109.88 62.7539 110.061 62.3779 110.188L65.3149 115H63.8647L61.2427 110.532H59.0161V115H57.771V104.292H60.6641ZM60.5908 105.369H59.0161V109.478H60.7153C61.5894 109.478 62.2314 109.299 62.6416 108.943C63.0566 108.586 63.2642 108.062 63.2642 107.368C63.2642 106.641 63.0444 106.125 62.605 105.823C62.1704 105.52 61.499 105.369 60.5908 105.369ZM69.9365 106.826C70.6201 106.826 71.2061 106.978 71.6943 107.28C72.1826 107.583 72.5562 108.008 72.8149 108.555C73.0737 109.097 73.2031 109.731 73.2031 110.459V111.213H67.6587C67.6733 112.156 67.9077 112.874 68.3618 113.367C68.8159 113.86 69.4556 114.106 70.2808 114.106C70.7886 114.106 71.2378 114.06 71.6284 113.967C72.019 113.875 72.4243 113.738 72.8442 113.557V114.626C72.439 114.807 72.0361 114.939 71.6357 115.022C71.2402 115.105 70.7715 115.146 70.2295 115.146C69.458 115.146 68.7842 114.99 68.208 114.678C67.6367 114.36 67.1924 113.896 66.875 113.286C66.5576 112.676 66.3989 111.929 66.3989 111.045C66.3989 110.181 66.543 109.434 66.8311 108.804C67.124 108.169 67.5342 107.681 68.0615 107.339C68.5938 106.997 69.2188 106.826 69.9365 106.826ZM69.9219 107.822C69.2725 107.822 68.7549 108.035 68.3691 108.459C67.9834 108.884 67.7539 109.478 67.6807 110.239H71.9287C71.9238 109.761 71.8481 109.341 71.7017 108.979C71.5601 108.613 71.3428 108.33 71.0498 108.13C70.7568 107.925 70.3809 107.822 69.9219 107.822ZM77.8613 114.15C78.0615 114.15 78.2666 114.133 78.4766 114.099C78.6865 114.065 78.8574 114.023 78.9893 113.975V114.919C78.8477 114.983 78.6499 115.037 78.396 115.081C78.147 115.125 77.9028 115.146 77.6636 115.146C77.2388 115.146 76.853 115.073 76.5063 114.927C76.1597 114.775 75.8813 114.521 75.6714 114.165C75.4663 113.809 75.3638 113.315 75.3638 112.686V107.925H74.2212V107.332L75.3711 106.855L75.8545 105.112H76.5869V106.973H78.938V107.925H76.5869V112.649C76.5869 113.152 76.7017 113.528 76.9312 113.777C77.1655 114.026 77.4756 114.15 77.8613 114.15ZM87.5366 110.972C87.5366 111.631 87.4512 112.219 87.2803 112.737C87.1094 113.254 86.8628 113.691 86.5405 114.048C86.2183 114.404 85.8276 114.678 85.3687 114.868C84.9146 115.054 84.3994 115.146 83.8232 115.146C83.2861 115.146 82.793 115.054 82.3438 114.868C81.8994 114.678 81.5137 114.404 81.1865 114.048C80.8643 113.691 80.6128 113.254 80.4321 112.737C80.2563 112.219 80.1685 111.631 80.1685 110.972C80.1685 110.093 80.3174 109.346 80.6152 108.73C80.9131 108.11 81.3379 107.639 81.8896 107.317C82.4463 106.99 83.1079 106.826 83.8745 106.826C84.6069 106.826 85.2466 106.99 85.7935 107.317C86.3452 107.644 86.7725 108.118 87.0752 108.738C87.3828 109.353 87.5366 110.098 87.5366 110.972ZM81.4282 110.972C81.4282 111.616 81.5137 112.175 81.6846 112.649C81.8555 113.123 82.1191 113.489 82.4756 113.748C82.832 114.006 83.291 114.136 83.8525 114.136C84.4092 114.136 84.8657 114.006 85.2222 113.748C85.5835 113.489 85.8496 113.123 86.0205 112.649C86.1914 112.175 86.2769 111.616 86.2769 110.972C86.2769 110.332 86.1914 109.78 86.0205 109.316C85.8496 108.848 85.5859 108.486 85.2295 108.232C84.873 107.979 84.4116 107.852 83.8452 107.852C83.0103 107.852 82.3975 108.127 82.0068 108.679C81.6211 109.231 81.4282 109.995 81.4282 110.972ZM96.2671 106.973V115H95.271L95.0952 113.872H95.0293C94.8633 114.15 94.6484 114.385 94.3848 114.575C94.1211 114.766 93.8232 114.907 93.4912 115C93.1641 115.098 92.8149 115.146 92.4438 115.146C91.8091 115.146 91.2769 115.044 90.8472 114.839C90.4175 114.634 90.0928 114.316 89.873 113.887C89.6582 113.457 89.5508 112.905 89.5508 112.231V106.973H90.7812V112.144C90.7812 112.812 90.9326 113.313 91.2354 113.645C91.5381 113.972 91.9995 114.136 92.6196 114.136C93.2153 114.136 93.689 114.023 94.0405 113.799C94.397 113.574 94.6533 113.245 94.8096 112.81C94.9658 112.371 95.0439 111.833 95.0439 111.199V106.973H96.2671ZM102.485 106.826C102.646 106.826 102.815 106.836 102.991 106.855C103.167 106.87 103.323 106.892 103.459 106.921L103.306 108.049C103.174 108.015 103.027 107.988 102.866 107.969C102.705 107.949 102.554 107.939 102.412 107.939C102.09 107.939 101.785 108.005 101.497 108.137C101.213 108.264 100.964 108.45 100.75 108.694C100.535 108.933 100.366 109.224 100.244 109.565C100.122 109.902 100.061 110.278 100.061 110.693V115H98.8379V106.973H99.8486L99.9805 108.452H100.032C100.198 108.154 100.398 107.883 100.632 107.639C100.867 107.39 101.138 107.192 101.445 107.046C101.758 106.899 102.104 106.826 102.485 106.826Z" fill="white"/>
<path d="M89.8631 81.682C87.0013 81.682 84.6813 79.3621 84.6813 76.5002C84.6813 73.6383 87.0013 71.3184 89.8631 71.3184C92.7249 71.3184 95.0449 73.6383 95.0449 76.5002C95.0449 79.3621 92.7249 81.682 89.8631 81.682Z" stroke="#D6FE00" stroke-width="4" stroke-miterlimit="1.5" stroke-linecap="round" stroke-linejoin="round"/>
<path d="M63.9549 81.682C61.093 81.682 58.7731 79.3621 58.7731 76.5002C58.7731 73.6383 61.093 71.3184 63.9549 71.3184C66.8168 71.3184 69.1367 73.6383 69.1367 76.5002C69.1367 79.3621 66.8168 81.682 63.9549 81.682Z" stroke="#D6FE00" stroke-width="4" stroke-miterlimit="1.5" stroke-linecap="round" stroke-linejoin="round"/>
<path d="M84.5523 76.5H71.7273V49.5545C71.7273 48.696 72.4232 48 73.2818 48H108" stroke="#D6FE00" stroke-width="4" stroke-linecap="round"/>
<path d="M95.9525 76.5H101.264C102.122 76.5 102.818 75.8041 102.818 74.9455V62.25" stroke="#D6FE00" stroke-width="4" stroke-linecap="round"/>
<path d="M105.409 55.7734H95.0455" stroke="#D6FE00" stroke-width="4" stroke-linecap="round" stroke-linejoin="round"/>
<path d="M71.7275 55.7734H57.1923C56.578 55.7734 56.0212 56.1352 55.7717 56.6966L51.1342 67.1309C51.0459 67.3299 51.0003 67.545 51.0003 67.7624V74.9462C51.0003 75.8048 51.6962 76.5007 52.5548 76.5007H57.4775" stroke="#D6FE00" stroke-width="4" stroke-linecap="round"/>
<path d="M71.7275 76.5H69.1366" stroke="#D6FE00" stroke-width="4" stroke-linecap="round"/>
</svg>
