<svg width="28" height="28" viewBox="0 0 28 28" fill="none" xmlns="http://www.w3.org/2000/svg">
<path d="M5.80033 20.7994C6.93366 19.9327 8.20033 19.2493 9.60033 18.7493C11.0003 18.2493 12.467 17.9993 14.0003 17.9993C15.5337 17.9993 17.0003 18.2493 18.4003 18.7493C19.8003 19.2493 21.067 19.9327 22.2003 20.7994C22.9781 19.8882 23.5837 18.8549 24.017 17.6994C24.4503 16.5438 24.667 15.3105 24.667 13.9993C24.667 11.0438 23.6281 8.52713 21.5503 6.44935C19.4725 4.37157 16.9559 3.33268 14.0003 3.33268C11.0448 3.33268 8.5281 4.37157 6.45033 6.44935C4.37255 8.52713 3.33366 11.0438 3.33366 13.9993C3.33366 15.3105 3.55033 16.5438 3.98366 17.6994C4.41699 18.8549 5.02255 19.8882 5.80033 20.7994ZM14.0003 15.3327C12.6892 15.3327 11.5837 14.8827 10.6837 13.9827C9.78366 13.0827 9.33366 11.9771 9.33366 10.666C9.33366 9.35491 9.78366 8.24935 10.6837 7.34935C11.5837 6.44935 12.6892 5.99935 14.0003 5.99935C15.3114 5.99935 16.417 6.44935 17.317 7.34935C18.217 8.24935 18.667 9.35491 18.667 10.666C18.667 11.9771 18.217 13.0827 17.317 13.9827C16.417 14.8827 15.3114 15.3327 14.0003 15.3327ZM14.0003 27.3327C12.1559 27.3327 10.4225 26.9827 8.80033 26.2827C7.1781 25.5827 5.76699 24.6327 4.56699 23.4327C3.36699 22.2327 2.41699 20.8216 1.71699 19.1994C1.01699 17.5771 0.666992 15.8438 0.666992 13.9993C0.666992 12.1549 1.01699 10.4216 1.71699 8.79935C2.41699 7.17713 3.36699 5.76602 4.56699 4.56602C5.76699 3.36602 7.1781 2.41602 8.80033 1.71602C10.4225 1.01602 12.1559 0.666016 14.0003 0.666016C15.8448 0.666016 17.5781 1.01602 19.2003 1.71602C20.8225 2.41602 22.2337 3.36602 23.4337 4.56602C24.6337 5.76602 25.5837 7.17713 26.2837 8.79935C26.9837 10.4216 27.3337 12.1549 27.3337 13.9993C27.3337 15.8438 26.9837 17.5771 26.2837 19.1994C25.5837 20.8216 24.6337 22.2327 23.4337 23.4327C22.2337 24.6327 20.8225 25.5827 19.2003 26.2827C17.5781 26.9827 15.8448 27.3327 14.0003 27.3327Z" fill="#D6FE00"/>
</svg>
