<?xml version="1.0" encoding="UTF-8"?>
<svg id="Laag_1" xmlns="http://www.w3.org/2000/svg" version="1.1" viewBox="0 0 155 78">
  <!-- Generator: Adobe Illustrator 29.1.0, SVG Export Plug-In . SVG Version: 2.1.0 Build 142)  -->
  <defs>
    <style>
      .st0 {
        fill: #abdcec;
      }

      .st1 {
        stroke: #abdcec;
        stroke-miterlimit: 10;
        stroke-width: 3px;
      }

      .st1, .st2 {
        fill: none;
      }
    </style>
  </defs>
  <path class="st0" d="M77.5,35.2l-8.1-8v8.5h-3.7v-12c0-1.9,1.1-2.7,2.2-2.7s1,.1,1.6.8l8.1,8v-8.5h3.7v12c0,1.9-1.1,2.7-2.3,2.7s-1-.1-1.6-.8h0Z"/>
  <path class="st0" d="M99.2,32l-2.6,3.7h-12.7v-14.5h15.3l-2.6,3.8h-8.6v1.7h10.5l-2.4,3.3h-8.1v2h11.2Z"/>
  <path class="st0" d="M119.5,28.5c0,5.2-3.2,7.5-9.7,7.5s-9.7-2.3-9.7-7.5,3.2-7.5,9.7-7.5,9.7,2.3,9.7,7.5ZM115.4,28.5c0-3.1-1.5-3.7-5.6-3.7s-5.6.6-5.6,3.7,1.5,3.7,5.6,3.7,5.6-.6,5.6-3.7Z"/>
  <path class="st0" d="M133.3,35.2l-8.1-8v8.5h-3.7v-12c0-1.9,1.1-2.7,2.2-2.7s1,.1,1.6.8l8.1,8v-8.5h3.7v12c0,1.9-1.1,2.7-2.3,2.7s-1-.1-1.6-.8h0Z"/>
  <path class="st0" d="M76.7,58h-6.9v3.7h-4.1v-7.4h11.4c1.3,0,2-.7,2-1.7s-.7-1.6-2-1.6h-11.4l2.7-3.8h8.3c4.1,0,6.5,2.2,6.5,5.4s-2.4,5.3-6.5,5.3Z"/>
  <path class="st0" d="M102.4,55.4c0,4.4-2.7,6.5-8.2,6.5s-9.1-2.2-9.1-6.5v-8.1h4.1v8.1c0,2.1.8,2.8,5,2.8s4.1-.8,4.1-2.8v-8.1h4.1v8.1Z"/>
  <path class="st0" d="M119.1,57.9l-2.6,3.7h-11.7v-14.5h4.1v10.7h10.2,0Z"/>
  <path class="st0" d="M132.7,53c3.2,0,5,1.3,5,4s-1.6,4.7-5.7,4.7h-12.3l2.6-3.7h10c1,0,1.4-.3,1.4-1.1s-.4-1-1.4-1h-7.2c-3.4,0-5-1.7-5-4.1s1.7-4.5,5.7-4.5h11.5l-2.6,3.8h-9.2c-.9,0-1.4.3-1.4,1s.5,1,1.4,1h7.2Z"/>
  <path class="st0" d="M154.8,57.9l-2.6,3.7h-12.7v-14.5h15.3l-2.6,3.8h-8.6v1.7h10.5l-2.4,3.3h-8.1v2h11.2Z"/>
  <rect class="st2" x=".3" width="43.9" height="48"/>
  <path class="st1" d="M19,26.1c1.8-1.9,3.5-3.8,5.3-5.7-.5-1.7-1-3.5-1.5-5.2,0-1.5.7-2.9,1.8-3.6,1.4-.9,3.3-.5,4.5.8.8,1.2,1.7,2.5,2.6,4.1.7,1.3,1.3,2.5,1.8,3.6.4.8.7,2.3.5,4.1-.2,1.7-.9,3-1.3,3.7-2.3,2.5-4.6,4.9-6.9,7.4-.6.5-1.8,1.2-3.4,1.4-1.6.2-2.9-.2-3.7-.6-1-.5-2.1-1.2-3.3-2-1.4-1-2.6-2-3.7-2.9-1.2-1.3-1.5-3.3-.7-4.8.7-1.3,2-2.1,3.4-2,1.6.6,3.1,1.2,4.7,1.8Z"/>
  <path class="st1" d="M53,51.9c-1.8,1.9-3.5,3.8-5.3,5.7.5,1.7,1,3.5,1.5,5.2,0,1.5-.7,2.9-1.8,3.6-1.4.9-3.3.5-4.5-.8-.8-1.2-1.7-2.5-2.6-4.1-.7-1.3-1.3-2.5-1.8-3.6-.4-.8-.7-2.3-.5-4.1.2-1.7.9-3,1.3-3.7,2.3-2.5,4.6-4.9,6.9-7.4.6-.5,1.8-1.2,3.4-1.4,1.6-.2,2.9.2,3.7.6,1,.5,2.1,1.2,3.3,2,1.4,1,2.6,2,3.7,2.9,1.2,1.3,1.5,3.3.7,4.8-.7,1.3-2,2.1-3.4,2-1.6-.6-3.1-1.2-4.7-1.8Z"/>
  <rect class="st2" y="29.8" width="43.9" height="48"/>
  <path class="st1" d="M23.9,57.4c-1.7-1.9-3.5-3.8-5.2-5.8-1.6.6-3.2,1.1-4.8,1.7-1.4,0-2.7-.8-3.3-2-.8-1.5-.5-3.6.8-4.9,1.1-.9,2.3-1.9,3.7-2.8,1.1-.8,2.3-1.4,3.3-2,.7-.4,2.1-.7,3.8-.5,1.6.2,2.8,1,3.4,1.4,2.2,2.5,4.5,5,6.7,7.5.5.7,1.1,2,1.3,3.7.2,1.7-.1,3.1-.6,4-.5,1.1-1.1,2.3-1.8,3.6-.9,1.6-1.8,2.9-2.7,4-1.2,1.3-3,1.7-4.4.8-1.2-.7-1.9-2.2-1.8-3.7.5-1.7,1.1-3.4,1.6-5.1Z"/>
  <rect class="st2" x="27.7" y=".1" width="43.9" height="48"/>
  <path class="st1" d="M47.7,20.6c1.7,1.9,3.5,3.8,5.2,5.8,1.6-.6,3.2-1.1,4.8-1.7,1.4,0,2.7.8,3.3,2,.8,1.5.5,3.6-.8,4.9-1.1.9-2.3,1.9-3.7,2.8-1.1.8-2.3,1.4-3.3,2-.7.4-2.1.7-3.8.5-1.6-.2-2.8-1-3.4-1.4-2.2-2.5-4.5-5-6.7-7.5-.5-.7-1.1-2-1.3-3.7-.2-1.7.1-3.1.6-4,.5-1.1,1.1-2.3,1.8-3.6.9-1.6,1.8-2.9,2.7-4,1.2-1.3,3-1.7,4.4-.8,1.2.7,1.9,2.2,1.8,3.7-.5,1.7-1.1,3.4-1.6,5.1Z"/>
</svg>